<svg id="Layer_1" data-name="Layer 1" xmlns="http://www.w3.org/2000/svg" viewBox="0 0 1000 1000"><defs><style>.cls-1{fill:#efce0a;}.cls-2{fill:#53a1db;}.cls-3{fill:#3b88b7;}.cls-4{fill:#f9ed19;}</style></defs><title>ccs_logo</title><path class="cls-1" d="M731,404.36l49.61,41.18a5.15,5.15,0,0,0,4.7,1l62-17.52a5.16,5.16,0,0,1,6.19,6.87l-23.83,59.9a5.15,5.15,0,0,0,.5,4.77L866,554.16a5.16,5.16,0,0,1-4.62,8L797.06,558a5.17,5.17,0,0,0-4.38,2l-39.9,50.64a5.16,5.16,0,0,1-9-1.92l-15.92-62.47a5.16,5.16,0,0,0-3.22-3.56l-60.49-22.3a5.16,5.16,0,0,1-1-9.2l54.49-34.45a5.18,5.18,0,0,0,2.4-4.16l2.51-64.42A5.15,5.15,0,0,1,731,404.36Z"/><path class="cls-2" d="M618.24,666.36q12.12-11.21,24-23.11c110.9-110.89,177.38-237.4,182.81-331.32,24,11.9,43.18,26.79,56.51,44.44C888.75,450.43,782.35,577.69,618.24,666.36Z"/><path class="cls-3" d="M381.32,335.19q-12.12,11.19-24,23.1c-110.9,110.9-177.38,237.4-182.81,331.32-24-11.91-43.18-26.79-56.52-44.44C110.81,551.11,217.2,423.85,381.32,335.19Z"/><path class="cls-3" d="M567.14,261.91a791.7,791.7,0,0,0-138.87,49.73q9.14-2.72,18.43-5.25a823.79,823.79,0,0,1,124.06-24Z"/><path class="cls-3" d="M767.52,276.61c2.61.14,4.09-1.05,4.63-2.2a3.33,3.33,0,0,0-.86-3.77L749.65,247c-50.11-6.95-111-2.45-176.66,13.48l3.77,21.26a684.12,684.12,0,0,1,79.47-3.82l2.51-2.84a11.23,11.23,0,0,1,8.92-3.62Z"/><path class="cls-3" d="M871.36,318.23c-10-20.42-26.63-36.63-48.44-48.64-18-9.9-39.47-16.94-63.77-21.14l16.58,18.12A9.36,9.36,0,0,1,777.59,277c-1.76,3.72-5.72,5.89-10.38,5.64l-99.86-5.17a5.5,5.5,0,0,0-2.83.61c63.68,1.66,119.18,13.32,160.55,33.87,24,11.9,43.18,26.79,56.51,44.44A103.75,103.75,0,0,0,871.36,318.23Z"/><path class="cls-3" d="M226.91,786.49a1.56,1.56,0,0,0-.55-.62L185.8,756.53a8.17,8.17,0,0,1-3.51-7.77,5.16,5.16,0,0,1,3.79-4.14l11.44-3A168.85,168.85,0,0,1,176.64,732C181,756.48,191,777.42,207,793.51A101.34,101.34,0,0,0,228.82,810Z"/><path class="cls-3" d="M325.91,783.2l53.2-32.44c-66.49,10.89-126,9-171.5-5.63l-19.34,5.14a2.89,2.89,0,0,0,1.06,1.38L229.89,781a7,7,0,0,1,3,5l2.22,27.34c2.52,1.21,5.09,2.35,7.72,3.4L272,808a7.27,7.27,0,0,1,2.2-.32,8.89,8.89,0,0,1,3.55.76l39,17.25q4.92-.4,9.94-1l-4.21-35.06A6.56,6.56,0,0,1,325.91,783.2Z"/><path class="cls-3" d="M588.62,681.63q-8.68,4.26-17.37,8.29c-60.24,28-120.17,47.25-175.8,57.92L329,788.33a1.75,1.75,0,0,0-.61.56l4.18,34.91c79.85-11.75,178.71-62.75,271-144.18q7.36-6.51,14.67-13.26Q603.72,674.21,588.62,681.63Z"/><path class="cls-3" d="M275.28,813.89a2.49,2.49,0,0,0-1.57-.18l-21.19,6.39c15.35,4.65,32.45,6.67,50.91,6.25Z"/><path class="cls-2" d="M749.65,247l-38.34-41.93a8,8,0,0,1-1.57-8.62L718.6,176c-56.3-5.45-128.81,16-204.07,59.69L567,253.08a8.58,8.58,0,0,1,5.89,6.64l.13.74C638.63,244.53,699.54,240,749.65,247Z"/><path class="cls-2" d="M715.26,198.82a2,2,0,0,0,.49,2.16l43.4,47.47c24.3,4.2,45.8,11.24,63.77,21.14-4.32-24.52-14.31-45.47-30.4-61.56-17.41-17.41-40.51-27.65-67.67-31.33Z"/><path class="cls-2" d="M566.93,260.77a2.59,2.59,0,0,0-1.86-2l-57.42-19.06c-37.2,22.21-75,49.79-111.67,82.2q-7.37,6.49-14.66,13.26,14.51-7.86,29.61-15.27,8.67-4.26,17.34-8.28a791.7,791.7,0,0,1,138.87-49.73Z"/><path class="cls-4" d="M732.32,130.09l-79.5,21.4a10.92,10.92,0,0,1-8.23-1l-57.31-34.1a3.07,3.07,0,0,0-1.57-.37,5.37,5.37,0,0,0-2.21.5,2.92,2.92,0,0,0-1.73,1.68l-9.89,60.59a9.35,9.35,0,0,1-5,6.53L494.35,224a3.92,3.92,0,0,0-2.38,3.37c0,.41.19.91,1.1,1.21L567,253.08a8.58,8.58,0,0,1,5.89,6.64l15,84.49a4.13,4.13,0,0,0,3,3.32,5.11,5.11,0,0,0,5.24-1.62l62.61-70.85a11.23,11.23,0,0,1,8.92-3.62l99.86,5.17c2.61.14,4.09-1.05,4.63-2.2a3.33,3.33,0,0,0-.86-3.77l-60-65.59a8,8,0,0,1-1.57-8.62l27.85-64.29c.09-.21.22-.49-.21-1A5.21,5.21,0,0,0,732.32,130.09Z"/><path class="cls-2" d="M306.57,723.6a2.34,2.34,0,0,0,2.11,1.11l91,2.82c4.31.14,7.4,2.18,8.27,5.48,1,3.76-1.32,8-5.9,10.8l-6.62,4c55.63-10.67,115.56-30,175.8-57.92q-9.12,2.7-18.4,5.24c-88.66,24.2-174.4,32.5-247.16,26.8Z"/><path class="cls-2" d="M232.87,738.42l-25.26,6.71c45.46,14.65,105,16.52,171.5,5.63l19.82-12.09c2.56-1.56,3.43-3.35,3.22-4.12-.12-.45-1-.95-2.63-1l-91-2.82a8.33,8.33,0,0,1-7.24-4.29l-2.72-5.09a449.71,449.71,0,0,1-55.75-8.5l-4.94,20.39A6.91,6.91,0,0,1,232.87,738.42Z"/><path class="cls-2" d="M231.33,732.6a1,1,0,0,0,.67-.78l4.92-20.31c-23.21-5.51-44.2-12.84-62.43-21.9-24-11.91-43.18-26.79-56.52-44.44a103.75,103.75,0,0,0,10.22,38.14c10,20.42,26.63,36.64,48.45,48.65a168.85,168.85,0,0,0,20.88,9.63Z"/><path class="cls-4" d="M402.15,734.55c-.12-.45-1-.95-2.63-1l-91-2.82a8.33,8.33,0,0,1-7.24-4.29L262.54,654c-.64-1.2-1.47-1.75-2.46-1.62-1.32.17-3.05,1.6-3.71,4.35l-18.52,76.47a6.91,6.91,0,0,1-5,5.18l-44.6,11.85a2.89,2.89,0,0,0,1.06,1.38L229.89,781a7,7,0,0,1,3,5l2.6,32a2.36,2.36,0,0,0,1.28.55L272,808a7.27,7.27,0,0,1,2.2-.32,8.89,8.89,0,0,1,3.55.76L324.36,829a4.63,4.63,0,0,0,2.85.23l-4.77-39.72a6.56,6.56,0,0,1,3.47-6.34l73-44.53C401.49,737.11,402.36,735.32,402.15,734.55Z"/></svg>